<svg xmlns="http://www.w3.org/2000/svg" xmlns:xlink="http://www.w3.org/1999/xlink" viewBox="0 0 326.79 662.24">
  <defs>
    <style>
      .a {
        fill: #ca9e67;
      }

      .b {
        fill: #f7f7f7;
      }

      .c {
        fill: #fbb03c;
      }

      .d {
        fill: url(#a);
      }

      .e {
        fill: #3c3e42;
      }

      .f {
        fill: #b17f4a;
      }

      .g {
        fill: #b28350;
      }
    </style>
    <linearGradient id="a" x1="175.22" y1="641.98" x2="148.52" y2="595.72" gradientUnits="userSpaceOnUse">
      <stop offset="0" stop-color="#ca9e67"/>
      <stop offset="0.39" stop-color="#b17f4a"/>
      <stop offset="0.77" stop-color="#ca9e67"/>
      <stop offset="1" stop-color="#b17f4a"/>
    </linearGradient>
  </defs>
  <title>Flat Iphone 6</title>
  <g>
    <path class="a" d="M276.43,0H49.38A47.3,47.3,0,0,0,2.08,47.3V614.93a47.3,47.3,0,0,0,47.3,47.3H276.43a47.3,47.3,0,0,0,47.3-47.3V47.3A47.3,47.3,0,0,0,276.43,0Zm40.35,611.46A42.57,42.57,0,0,1,274.21,654H51.89A42.57,42.57,0,0,1,9.32,611.46V48.56A42.57,42.57,0,0,1,51.89,6H274.21a42.57,42.57,0,0,1,42.57,42.57Z"/>
    <rect class="b" x="6.67" y="4.76" width="311.78" height="652.43" rx="43.99" ry="43.99"/>
    <rect class="c" x="21.77" y="83.19" width="281.94" height="497.23"/>
    <path class="d" d="M161.87,592.15a26.7,26.7,0,1,0,26.7,26.7A26.7,26.7,0,0,0,161.87,592.15Zm0,50.06a23.36,23.36,0,1,1,23.36-23.36A23.36,23.36,0,0,1,161.87,642.21Z"/>
    <circle class="e" cx="162.7" cy="22.28" r="4.17"/>
    <circle class="e" cx="112.64" cy="42.3" r="5.84"/>
    <path class="e" d="M185.09,44.81H140.25a3.34,3.34,0,0,1-3.34-3.34h0a3.34,3.34,0,0,1,3.34-3.34h44.85a3.34,3.34,0,0,1,3.34,3.34h0A3.34,3.34,0,0,1,185.09,44.81Z"/>
    <rect class="f" x="322.06" y="141.59" width="4.73" height="46.72" rx="1.42" ry="1.42"/>
    <rect class="f" x="0.28" y="83.19" width="4.73" height="28.37" rx="1.42" ry="1.42"/>
    <rect class="f" y="141.59" width="4.73" height="48.39" rx="1.42" ry="1.42"/>
    <rect class="f" x="0.28" y="201.67" width="4.73" height="48.39" rx="1.42" ry="1.42"/>
    <rect class="g" x="2.08" y="51.48" width="4.6" height="9.91"/>
    <rect class="g" x="318.38" y="51.48" width="5.36" height="9.91"/>
    <rect class="f" x="1.7" y="602.27" width="4.97" height="9.91"/>
    <rect class="f" x="318.4" y="602.16" width="5.33" height="9.91"/>
  </g>
</svg>
