<?xml version="1.0" encoding="iso-8859-1"?>
<svg version="1.1" xmlns="http://www.w3.org/2000/svg" xmlns:xlink="http://www.w3.org/1999/xlink">

  <symbol id="signin" viewBox="0 0 60 60">
    <path
      d="M48.014,42.889l-9.553-4.776C37.56,37.662,37,36.756,37,35.748v-3.381c0.229-0.28,0.47-0.599,0.719-0.951
    	c1.239-1.75,2.232-3.698,2.954-5.799C42.084,24.97,43,23.575,43,22v-4c0-0.963-0.36-1.896-1-2.625v-5.319
    	c0.056-0.55,0.276-3.824-2.092-6.525C37.854,1.188,34.521,0,30,0s-7.854,1.188-9.908,3.53C17.724,6.231,17.944,9.506,18,10.056
    	v5.319c-0.64,0.729-1,1.662-1,2.625v4c0,1.217,0.553,2.352,1.497,3.109c0.916,3.627,2.833,6.36,3.503,7.237v3.309
    	c0,0.968-0.528,1.856-1.377,2.32l-8.921,4.866C8.801,44.424,7,47.458,7,50.762V54c0,4.746,15.045,6,23,6s23-1.254,23-6v-3.043
    	C53,47.519,51.089,44.427,48.014,42.889z M51,54c0,1.357-7.412,4-21,4S9,55.357,9,54v-3.238c0-2.571,1.402-4.934,3.659-6.164
    	l8.921-4.866C23.073,38.917,24,37.354,24,35.655v-4.019l-0.233-0.278c-0.024-0.029-2.475-2.994-3.41-7.065l-0.091-0.396l-0.341-0.22
    	C19.346,23.303,19,22.676,19,22v-4c0-0.561,0.238-1.084,0.67-1.475L20,16.228V10l-0.009-0.131c-0.003-0.027-0.343-2.799,1.605-5.021
    	C23.253,2.958,26.081,2,30,2c3.905,0,6.727,0.951,8.386,2.828c1.947,2.201,1.625,5.017,1.623,5.041L40,16.228l0.33,0.298
    	C40.762,16.916,41,17.439,41,18v4c0,0.873-0.572,1.637-1.422,1.899l-0.498,0.153l-0.16,0.495c-0.669,2.081-1.622,4.003-2.834,5.713
    	c-0.297,0.421-0.586,0.794-0.837,1.079L35,31.623v4.125c0,1.77,0.983,3.361,2.566,4.153l9.553,4.776
    	C49.513,45.874,51,48.28,51,50.957V54z"/>
  </symbol>

  <symbol id="moraje" viewBox="0 0 511.999 511.999">
    <path
      d="M142.715,82.068h-36.571c-5.77,0-10.449,4.679-10.449,10.449v57.469c0,5.77,4.679,10.449,10.449,10.449h36.571
  			c5.77,0,10.449-4.679,10.449-10.449V92.517C153.164,86.747,148.485,82.068,142.715,82.068z M132.266,139.537h-15.674v-36.571
  			h15.674V139.537z"/>
    <path
      d="M215.858,82.068h-36.571c-5.77,0-10.449,4.679-10.449,10.449v57.469c0,5.77,4.679,10.449,10.449,10.449h36.571
  			c5.77,0,10.449-4.679,10.449-10.449V92.517C226.307,86.747,221.628,82.068,215.858,82.068z M205.409,139.537h-15.673v-36.571
  			h15.673V139.537z"/>
    <path
      d="M142.715,184.467h-36.571c-5.77,0-10.449,4.679-10.449,10.449v57.469c0,5.77,4.679,10.449,10.449,10.449h36.571
  			c5.77,0,10.449-4.679,10.449-10.449v-57.469C153.164,189.147,148.485,184.467,142.715,184.467z M132.266,241.937h-15.674v-36.571
  			h15.674V241.937z"/>
    <path
      d="M215.858,184.467h-36.571c-5.77,0-10.449,4.679-10.449,10.449v57.469c0,5.77,4.679,10.449,10.449,10.449h36.571
  			c5.77,0,10.449-4.679,10.449-10.449v-57.469C226.307,189.147,221.628,184.467,215.858,184.467z M205.409,241.937h-15.673v-36.571
  			h15.673V241.937z"/>
    <path
      d="M142.715,286.867h-36.571c-5.77,0-10.449,4.679-10.449,10.449v57.469c0,5.77,4.679,10.449,10.449,10.449h36.571
  			c5.77,0,10.449-4.679,10.449-10.449v-57.469C153.164,291.547,148.485,286.867,142.715,286.867z M132.266,344.337h-15.674v-36.571
  			h15.674V344.337z"/>
    <path
      d="M215.858,286.867h-36.571c-5.77,0-10.449,4.679-10.449,10.449v57.469c0,5.77,4.679,10.449,10.449,10.449h36.571
  			c5.77,0,10.449-4.679,10.449-10.449v-57.469C226.307,291.547,221.628,286.867,215.858,286.867z M205.409,344.337h-15.673v-36.571
  			h15.673V344.337z"/>
    <path
      d="M142.715,389.267h-36.571c-5.77,0-10.449,4.679-10.449,10.449v57.469c0,5.77,4.679,10.449,10.449,10.449h36.571
  			c5.77,0,10.449-4.679,10.449-10.449v-57.469C153.164,393.947,148.485,389.267,142.715,389.267z M132.266,446.737h-15.674v-36.571
  			h15.674V446.737z"/>
    <path
      d="M215.858,389.267h-36.571c-5.77,0-10.449,4.679-10.449,10.449v57.469c0,5.77,4.679,10.449,10.449,10.449h36.571
  			c5.77,0,10.449-4.679,10.449-10.449v-57.469C226.307,393.947,221.628,389.267,215.858,389.267z M205.409,446.737h-15.673v-36.571
  			h15.673V446.737z"/>
    <path d="M400.506,422.486h-0.187c-5.77,0-10.449,4.679-10.449,10.449c0,5.77,4.679,10.449,10.449,10.449h0.187
  			c5.77,0,10.449-4.679,10.449-10.449C410.955,427.165,406.276,422.486,400.506,422.486z"/>
    <path d="M400.506,176.087h-0.187c-5.77,0-10.449,4.679-10.449,10.449c0,5.77,4.679,10.449,10.449,10.449h0.187
  			c5.77,0,10.449-4.679,10.449-10.449C410.955,180.766,406.276,176.087,400.506,176.087z"/>
    <path d="M400.506,225.367h-0.187c-5.77,0-10.449,4.679-10.449,10.449c0,5.77,4.679,10.449,10.449,10.449h0.187
  			c5.77,0,10.449-4.679,10.449-10.449C410.955,230.046,406.276,225.367,400.506,225.367z"/>
    <path d="M400.506,274.646h-0.187c-5.77,0-10.449,4.679-10.449,10.449c0,5.77,4.679,10.449,10.449,10.449h0.187
  			c5.77,0,10.449-4.679,10.449-10.449C410.955,279.325,406.276,274.646,400.506,274.646z"/>
    <path d="M400.506,323.926h-0.187c-5.77,0-10.449,4.679-10.449,10.449c0,5.77,4.679,10.449,10.449,10.449h0.187
  			c5.77,0,10.449-4.679,10.449-10.449C410.955,328.605,406.276,323.926,400.506,323.926z"/>
    <path d="M400.506,373.206h-0.187c-5.77,0-10.449,4.679-10.449,10.449c0,5.77,4.679,10.449,10.449,10.449h0.187
  			c5.77,0,10.449-4.679,10.449-10.449C410.955,377.885,406.276,373.206,400.506,373.206z"/>
    <path
      d="M479.085,491.101H450.47V136.957c0-5.77-4.679-10.449-10.449-10.449H266.535V55.379c0-4.845-3.331-9.055-8.046-10.169
  			L68.318,0.279c-3.109-0.732-6.382-0.006-8.887,1.976c-2.506,1.98-3.965,4.999-3.965,8.193v480.653H32.914
  			c-5.77,0-10.449,4.679-10.449,10.449c0,5.77,4.679,10.449,10.449,10.449h446.171c5.77,0,10.449-4.679,10.449-10.449
  			C489.534,495.78,484.855,491.101,479.085,491.101z M245.637,136.957v354.144H76.364V23.652l169.273,39.993V136.957z
  			 M429.572,491.101H266.535v-47.716h97.872c5.77,0,10.449-4.679,10.449-10.449c0-5.77-4.679-10.449-10.449-10.449h-97.872v-28.381
  			h97.872c5.77,0,10.449-4.679,10.449-10.449c0-5.77-4.679-10.449-10.449-10.449h-97.872v-28.383h97.872
  			c5.77,0,10.449-4.679,10.449-10.449c0-5.77-4.679-10.449-10.449-10.449h-97.872v-28.382h97.872c5.77,0,10.449-4.679,10.449-10.449
  			c0-5.77-4.679-10.449-10.449-10.449h-97.872v-28.382h97.872c5.77,0,10.449-4.679,10.449-10.449c0-5.77-4.679-10.449-10.449-10.449
  			h-97.872v-28.382h97.872c5.77,0,10.449-4.679,10.449-10.449c0-5.77-4.679-10.449-10.449-10.449h-97.872v-28.681h163.036V491.101z"/>
  </symbol>

  <symbol id="accept" viewBox="0 0 512 512">
    <path
      d="M442.6,356.6c-15.2-15.2-34.4-23.8-54.2-26V91.5c0-2.7-1.1-5.3-3-7.2L304.1,3c-1.9-1.9-4.5-3-7.2-3H53
    	c-5.6,0-10.2,4.6-10.2,10.2v453.1c0,5.6,4.6,10.2,10.2,10.2h250.9c2.9,4.2,6.3,8.1,10,11.9c17.2,17.2,40.1,26.7,64.4,26.7
    	s47.2-9.5,64.4-26.7C478.1,449.8,478.1,392.1,442.6,356.6z M307.1,34.8l46.5,46.5h-46.5V34.8z M63.2,453.1V20.4h223.5v71.1
    	c0,5.6,4.6,10.2,10.2,10.2H368v228.9c-19.8,2.2-39,10.9-54.2,26c-26,26-33,64.1-20.8,96.5L63.2,453.1L63.2,453.1z M428.2,470.9
    	L428.2,470.9c-13.3,13.3-31.1,20.7-49.9,20.7s-36.6-7.3-49.9-20.7c-27.5-27.5-27.5-72.4,0-99.9c13.8-13.8,31.9-20.7,49.9-20.7
    	s36.2,6.9,49.9,20.7C455.7,398.6,455.7,443.4,428.2,470.9z"/>
    <path d="M406.9,391.6l-42.3,42l-16.4-16.4c-4-4-10.4-4-14.4,0c-4,4-4,10.4,0,14.4l23.6,23.6c2,2,4.6,3,7.2,3c2.6,0,5.2-1,7.2-3
    	l49.5-49.2c4-4,4-10.4,0-14.4C417.4,387.6,410.9,387.6,406.9,391.6z"/>
    <path d="M89.8,266.2c-5.6,0-10.2,4.6-10.2,10.2v149.9c0,5.6,4.6,10.2,10.2,10.2S100,432,100,426.3V276.4
    	C100,270.8,95.4,266.2,89.8,266.2z"/>
    <path d="M89.8,218.3c-5.6,0-10.2,4.6-10.2,10.2v10.2c0,5.6,4.6,10.2,10.2,10.2s10.2-4.6,10.2-10.2v-10.2
    	C100,222.8,95.4,218.3,89.8,218.3z"/>
  </symbol>

  <symbol id="drive" viewBox="0 0 295.238 295.238">
    <path
      d="M147.619,0C66.219,0,0,66.224,0,147.619s66.219,147.619,147.619,147.619s147.619-66.224,147.619-147.619
      S229.019,0,147.619,0z M147.619,285.714c-76.143,0-138.095-61.948-138.095-138.095S71.476,9.524,147.619,9.524
      s138.095,61.948,138.095,138.095S223.762,285.714,147.619,285.714z"/>
    <path
      d="M255.7,129.952l0.019-0.019c-0.01-0.01-0.014-0.014-0.024-0.024c-8.495-51.995-53.714-91.814-108.076-91.814
      S48.038,77.914,39.548,129.91c-0.01,0.01-0.014,0.014-0.024,0.024l0.019,0.019c-0.938,5.752-1.448,11.652-1.448,17.667
      c0,60.39,49.129,109.524,109.524,109.524s109.524-49.133,109.524-109.524C257.143,141.605,256.633,135.705,255.7,129.952z
       M147.619,47.619c45.295,0,83.6,30.295,95.852,71.671c-26.952-20.957-62.348-33.576-95.852-33.576
      c-33.504,0-68.895,12.619-95.852,33.581C64.019,77.914,102.324,47.619,147.619,47.619z M53.752,181.771
      c6.643-5.852,24.314-19.867,41.486-19.867c17.357,0,28.571,13.086,28.571,33.333c0,19.348-9.495,36.629-14.69,44.652
      C83.481,229.152,63.329,207.995,53.752,181.771z M186.11,239.895c-5.2-8.005-14.681-25.243-14.681-44.657
      c0-20.248,11.214-33.333,28.571-33.333c17.124,0,34.829,14.019,41.481,19.876C231.905,208,211.752,229.157,186.11,239.895z
       M244.525,171.852c-9.086-7.448-26.533-19.471-44.524-19.471c-22.429,0-38.095,17.624-38.095,42.857
      c0,20.49,9.048,38.405,15.005,47.986c-9.267,2.843-19.1,4.395-29.29,4.395c-10.19,0-20.026-1.552-29.292-4.395
      c5.957-9.581,15.005-27.495,15.005-47.986c0-25.233-15.667-42.857-38.095-42.857c-17.99,0-35.438,12.024-44.524,19.471
      c-1.948-7.776-3.095-15.862-3.095-24.233c0-4.452,0.395-8.805,0.962-13.105c26.052-24.276,63.662-39.276,99.038-39.276
      c35.381,0,72.99,15,99.038,39.276c0.567,4.3,0.962,8.652,0.962,13.105C247.62,155.99,246.472,164.076,244.525,171.852z"/>
    <path
      d="M147.619,109.523c-13.129,0-23.81,10.681-23.81,23.81c0,13.129,10.681,23.81,23.81,23.81
      c13.129,0,23.81-10.681,23.81-23.81C171.429,120.204,160.748,109.523,147.619,109.523z M147.619,147.619
      c-7.876,0-14.286-6.41-14.286-14.286s6.41-14.286,14.286-14.286s14.286,6.41,14.286,14.286
      C161.905,141.209,155.495,147.619,147.619,147.619z"/>
    <path d="M286.052,68.438l8.843-3.538c-9.919-24.814-39.562-54.462-59.433-64.4L231.2,9.019
      C249.171,18.005,277.048,45.919,286.052,68.438z"/>
    <rect x="104.762" y="128.571" width="9.524" height="9.524"/>
    <rect x="180.952" y="128.571" width="9.524" height="9.524"/>
    <rect x="133.333" y="266.667" width="9.524" height="9.524"/>
    <rect x="152.381" y="266.667" width="9.524" height="9.524"/>
    <path d="M9.186,226.8l-8.843,3.538c9.924,24.81,39.567,54.462,59.433,64.395l4.262-8.519
      C46.067,277.233,18.19,249.319,9.186,226.8z"/>
  </symbol>

  <symbol id="money" viewBox="0 0 59.65 59.65">
    <path d="M35.033,49.65c-1.93,0-3.5,1.57-3.5,3.5s1.57,3.5,3.5,3.5s3.5-1.57,3.5-3.5S36.963,49.65,35.033,49.65z M35.033,54.65
  		c-0.827,0-1.5-0.673-1.5-1.5s0.673-1.5,1.5-1.5s1.5,0.673,1.5,1.5S35.861,54.65,35.033,54.65z"/>
    <path
      d="M13.568,21.211l3.535,3.535c0.195,0.195,0.451,0.293,0.707,0.293s0.512-0.098,0.707-0.293c0.391-0.391,0.391-1.023,0-1.414
  		l-2.192-2.192c1.101-1.665,1.101-3.85,0-5.515l4.384-4.385c1.621,1.078,3.893,1.078,5.516,0l2.192,2.192
  		c0.391,0.391,1.023,0.391,1.414,0s0.391-1.023,0-1.414l-3.536-3.536l-0.707,0.707c-1.134,1.133-3.109,1.133-4.243,0l-0.707-0.707
  		l-7.071,7.071l0.707,0.707c1.169,1.17,1.169,3.073,0,4.243L13.568,21.211z"/>
    <path
      d="M43.337,28.353c-1.101,1.665-1.101,3.85,0,5.515l-4.384,4.385c-1.623-1.079-3.895-1.079-5.516,0l-2.192-2.192
  		c-0.391-0.391-1.023-0.391-1.414,0s-0.391,1.023,0,1.414l3.536,3.536l0.707-0.707c1.134-1.134,3.109-1.132,4.243,0l0.707,0.707
  		l7.071-7.071l-0.707-0.707c-1.169-1.17-1.169-3.073,0-4.243l0.707-0.707l-3.535-3.535c-0.391-0.391-1.023-0.391-1.414,0
  		s-0.391,1.023,0,1.414L43.337,28.353z"/>
    <circle cx="47.509" cy="31.11" r="1"/>
    <circle cx="36.195" cy="42.424" r="1"/>
    <path d="M24.174,7.776c0.391-0.391,0.758-1.024,0.368-1.414c-0.391-0.391-1.024-0.391-1.414,0
  		c-0.391,0.391-0.758,1.024-0.368,1.414C23.151,8.166,23.784,8.166,24.174,7.776z"/>
    <circle cx="12.154" cy="18.382" r="1"/>
    <path
      d="M51.533,37.15c0-0.88-0.143-1.744-0.413-2.58l3.455-3.455l-4.555-4.612c0.943-0.84,1.513-2.05,1.513-3.353
  		c0-2.481-2.019-4.5-4.5-4.5c-0.182,0-0.362,0.018-0.54,0.04c0.022-0.178,0.04-0.357,0.04-0.54c0-2.481-2.019-4.5-4.5-4.5
  		c-0.182,0-0.362,0.018-0.54,0.04c0.022-0.178,0.04-0.357,0.04-0.54c0-2.481-2.019-4.5-4.5-4.5c-0.182,0-0.362,0.018-0.54,0.04
  		c0.022-0.178,0.04-0.357,0.04-0.54c0-2.607-1.738-4.5-4.132-4.5c-1.308,0-2.628,0.566-3.544,1.422L23.847,0L5.075,18.374
  		l9.243,9.244c-0.494,0.722-0.784,1.593-0.784,2.532c0,1.564,0.804,2.942,2.019,3.748c0.06,0.08,0.132,0.161,0.226,0.241
  		l10.755,10.715v1.796h-2v13h18h8v-13h-2v-3.029C50.447,42,51.533,39.669,51.533,37.15z M15.533,30.15
  		c0-0.657,0.26-1.251,0.675-1.697l0.153-0.14c0.348-0.318,0.766-0.528,1.207-0.616c0.151-0.029,0.305-0.047,0.464-0.047h2.201h7.799
  		c1.378,0,2.5,1.121,2.5,2.5c0,0.162-0.018,0.319-0.048,0.473c-0.211,1.052-1.11,1.892-2.22,1.999l-0.297,0.028h-5.79h-2.828h-1.317
  		C16.655,32.65,15.533,31.529,15.533,30.15z M24.175,19.089c3.119-3.119,8.194-3.119,11.313,0c1.511,1.511,2.343,3.521,2.343,5.657
  		s-0.832,4.146-2.343,5.657c-1.005,1.005-2.252,1.709-3.598,2.065c0.108-0.179,0.202-0.367,0.285-0.561
  		c0.005-0.012,0.008-0.026,0.014-0.038c0.095-0.229,0.166-0.469,0.223-0.715c0.015-0.064,0.028-0.127,0.04-0.191
  		c0.048-0.265,0.082-0.534,0.082-0.813c0-2.481-2.019-4.5-4.5-4.5h-6.145C21.611,23.232,22.437,20.827,24.175,19.089z M49.533,23.15
  		c0,0.758-0.347,1.462-0.919,1.928l-3.488-3.532c0.468-0.557,1.159-0.897,1.907-0.897C48.412,20.65,49.533,21.771,49.533,23.15z
  		 M44.533,18.15c0,0.743-0.337,1.43-0.888,1.897l-3.488-3.532c0.467-0.537,1.143-0.866,1.876-0.866
  		C43.412,15.65,44.533,16.771,44.533,18.15z M39.533,13.15c0,0.727-0.326,1.4-0.857,1.866l-3.488-3.531
  		c0.466-0.517,1.127-0.834,1.844-0.834C38.412,10.65,39.533,11.771,39.533,13.15z M32.401,5.65c1.473,0,2.132,1.256,2.132,2.5
  		c0,0.712-0.314,1.369-0.825,1.834l-3.45-3.493C30.802,5.998,31.618,5.65,32.401,5.65z M23.823,2.822l3.904,3.952L27.641,6.97l5,5
  		l0.573,0.573l4.427,4.427l0.573,0.573l4.427,4.427l0.573,0.573l5,5l0.016-0.007l3.526,3.57L36.212,46.65h-0.033l-12-12h3.854
  		c0.102,0,0.198-0.023,0.299-0.03c0.498,0.076,0.997,0.117,1.494,0.117c2.633,0,5.193-1.038,7.075-2.92
  		c1.889-1.889,2.929-4.4,2.929-7.071s-1.04-5.183-2.929-7.071c-3.898-3.898-10.243-3.898-14.142,0
  		c-2.119,2.119-3.152,5.031-2.88,7.976h-1.847c-0.264,0-0.523,0.032-0.78,0.079c-0.083,0.015-0.165,0.031-0.246,0.05
  		c-0.186,0.045-0.368,0.102-0.546,0.17c-0.155,0.058-0.303,0.128-0.449,0.203c-0.073,0.038-0.149,0.069-0.22,0.11L7.919,18.39
  		L23.823,2.822z M28.181,43.634c-0.045-0.039-0.092-0.074-0.18-0.14l-8.877-8.844h2.227l12,12h-4.817v-2.718L28.181,43.634z
  		 M26.533,57.65v-9h7.678h0.747c0.139,0,0.276,0.011,0.412,0.021l0.824,0.824l0.547-0.547c2.201,0.746,3.791,2.827,3.791,5.276
  		v3.426H26.533z M48.533,57.65h-6v-3.426c0-2.206-0.954-4.189-2.464-5.574h8.464V57.65z M39.04,46.65l3.729-3.729l6.697-6.697
  		c0.045,0.306,0.067,0.614,0.067,0.926c0,2.055-0.948,3.947-2.602,5.191l-0.398,0.3v4.009H39.04z"/>
  </symbol>
</svg>
