<?xml version="1.0" encoding="iso-8859-1"?>
<svg version="1.1" xmlns="http://www.w3.org/2000/svg" xmlns:xlink="http://www.w3.org/1999/xlink">

  <symbol id="facebook" viewBox="0 0 512 512">
    <path
      d="M437.02,74.981C388.668,26.628,324.38,0,256.001,0C188.021,0,123.05,26.912,74.981,74.981
      C26.629,123.333,0.001,187.621,0.001,256c0,53.306,16.227,104.399,46.926,147.757c30.02,42.398,71.526,74.321,120.03,92.318
      c3.258,1.209,7.025,0.223,9.267-2.703c1.111-1.452,1.63-3.274,1.63-5.102V342.232c0-4.465-3.62-8.084-8.084-8.084h-67.368v-59.284
      h67.368c4.465,0,8.084-3.62,8.084-8.084V256c0-70.34,66.739-132.042,142.821-132.042h35.032v59.284h-35.032
      c-22.814,0-43.559,6.567-58.413,18.489c-16.436,13.192-25.124,31.958-25.124,54.269v10.779c0,4.465,3.62,8.084,8.084,8.084h31.872
      c4.465,0,8.084-3.62,8.084-8.084c0-4.465-3.62-8.084-8.084-8.084h-23.788V256c0-41.768,36.291-56.589,67.368-56.589h43.116
      c4.465,0,8.084-3.62,8.084-8.084v-75.453c0-4.465-3.62-8.084-8.084-8.084h-43.116c-39.518,0-79.573,15.72-109.895,43.129
      c-31.659,28.619-49.095,65.937-49.095,105.082v2.695H94.316c-4.465,0-8.084,3.62-8.084,8.084v75.453
      c0,4.465,3.62,8.084,8.084,8.084h67.368v126.248C74.182,439.076,16.169,351.887,16.169,256
      c0-132.244,107.588-239.832,239.83-239.832c132.098,0,239.833,107.734,239.833,239.833c0,132.243-107.588,239.83-239.832,239.83
      c-0.885,0-1.782-0.005-2.695-0.017V350.316H363.79c4.465,0,8.084-3.62,8.084-8.084v-75.453c0-4.465-3.62-8.084-8.084-8.084
      h-47.317c-4.465,0-8.084,3.62-8.084,8.084c0,4.465,3.62,8.084,8.084,8.084h39.233v59.284H245.222c-4.465,0-8.084,3.62-8.084,8.084
      v161.437c0,4.325,3.408,7.891,7.729,8.077c4.005,0.171,7.648,0.255,11.135,0.255c68.379,0,132.667-26.628,181.019-74.981
      c48.069-48.07,74.981-113.04,74.981-181.021C512.001,187.621,485.372,123.333,437.02,74.981z"/>
  </symbol>

  <symbol id="telegram" viewBox="0 0 512 512">
    <path
      d="M437.019,74.981C388.667,26.628,324.379,0,256,0S123.333,26.628,74.981,74.981C26.628,123.333,0,187.621,0,256
      s26.628,132.667,74.981,181.019C123.333,485.372,187.621,512,256,512s132.667-26.628,181.019-74.981S512,324.379,512,256
      S485.372,123.333,437.019,74.981z M256,495.832C123.756,495.832,16.168,388.244,16.168,256S123.756,16.168,256,16.168
      S495.832,123.756,495.832,256S388.244,495.832,256,495.832z"/>

    <path
      d="M400.989,98.637c-2.482-1.87-5.817-2.15-8.577-0.722L79.822,259.599c-2.702,1.397-4.391,4.194-4.371,7.236
      c0.02,3.042,1.747,5.815,4.469,7.176l81.764,40.88v81.006c0,2.12,0.721,4.218,2.18,5.757c1.614,1.703,3.759,2.557,5.905,2.557
      c1.352,0,2.704-0.338,3.927-1.018l93.544-51.969l71.597,30.684c1.523,0.653,3.209,0.923,4.839,0.619
      c3.355-0.627,5.849-3.197,6.485-6.372l18.115-90.577c1-5.003-2.826-9.67-7.928-9.67c-3.854-0.002-7.171,2.718-7.927,6.496
      l-16.162,80.808l-66.295-28.412c-2.297-0.985-4.923-0.85-7.111,0.363l-85,47.223v-72.492c0-3.062-1.73-5.86-4.469-7.231
      l-72.015-36.007l283.53-146.654l-24.605,123.023c-1,5.003,2.826,9.67,7.928,9.67c3.853,0,7.171-2.721,7.928-6.499l27.903-139.517
      C404.662,103.633,403.471,100.506,400.989,98.637z"/>

    <path
      d="M348.576,164.757c-2.541-3.216-7.089-4.024-10.581-1.873l-140.126,86.232c-2.391,1.471-3.847,4.078-3.847,6.885v86.232
      c-0.001,3.75,2.577,7.006,6.225,7.868c0.621,0.147,1.244,0.218,1.86,0.218c3.007,0,5.837-1.686,7.228-4.47l31.75-63.5
      l106.863-106.863C350.847,172.586,351.117,167.975,348.576,164.757z M228.725,271.842c-0.613,0.614-1.125,1.324-1.513,2.101
      l-17.022,34.043v-47.468l77.636-47.777L228.725,271.842z"/>
  </symbol>

  <symbol id="instagram" viewBox="0 0 512 512">
    <path
      d="M437.019,74.981C388.667,26.628,324.379,0,256,0S123.333,26.628,74.981,74.981C26.628,123.333,0,187.621,0,256
			s26.628,132.667,74.981,181.019C123.333,485.372,187.621,512,256,512s132.667-26.628,181.019-74.981S512,324.379,512,256
			S485.372,123.333,437.019,74.981z M256,495.832C123.756,495.832,16.168,388.244,16.168,256S123.756,16.168,256,16.168
			S495.832,123.756,495.832,256S388.244,495.832,256,495.832z"/>

    <path
      d="M347.845,97.011H164.155c-37.024,0-67.144,30.121-67.144,67.144v183.692c0,37.022,30.121,67.143,67.144,67.143h183.692
			c37.022,0,67.143-30.121,67.143-67.144V164.155C414.989,127.131,384.869,97.011,347.845,97.011z M398.821,347.845
			c0,28.108-22.868,50.976-50.976,50.976H164.155c-28.108,0-50.976-22.868-50.976-50.976V164.155
			c0-28.108,22.868-50.976,50.976-50.976h183.692c28.107,0,50.975,22.868,50.975,50.976V347.845z"/>

    <path
      d="M339.402,251.22c-2.391-42.533-37.002-76.75-79.558-78.669c-49.108-2.214-89.535,38.232-87.292,87.346
			c1.945,42.56,36.19,77.154,78.728,79.51c17.951,0.995,34.762-3.727,48.803-12.494c4.374-2.731,5.087-8.814,1.441-12.459
			c-0.039-0.039-0.077-0.077-0.115-0.115c-2.657-2.658-6.778-3.059-9.971-1.075c-10.491,6.519-22.892,10.241-36.158,10.102
			c-37.455-0.394-67.676-31.844-66.621-69.286c1.061-37.681,33.215-67.721,71.657-65.312c33.126,2.076,60.09,28.49,62.819,61.569
			c1.111,13.475-1.787,26.206-7.61,37.157c-1.667,3.136-1.153,6.982,1.358,9.493c0.041,0.041,0.083,0.083,0.124,0.124
			c3.773,3.773,10.154,2.886,12.675-1.816C336.664,282.269,340.301,267.197,339.402,251.22z"/>

    <circle cx="342.232" cy="158.989" r="21.558"/>
  </symbol>

  <symbol id="linkedin" viewBox="0 0 512 512">
    <path
      d="M437.019,74.982C388.667,26.628,324.379,0,256,0S123.333,26.628,74.981,74.982C26.628,123.333,0,187.621,0,256
			s26.628,132.667,74.981,181.019C123.333,485.372,187.621,512,256,512s132.667-26.628,181.019-74.982
			C485.372,388.667,512,324.379,512,256S485.372,123.333,437.019,74.982z M256,495.832C123.756,495.832,16.168,388.244,16.168,256
			S123.756,16.168,256,16.168S495.832,123.756,495.832,256S388.244,495.832,256,495.832z"/>

    <path
      d="M180.547,204.8h-53.895c-4.465,0-8.084,3.619-8.084,8.084v161.684c0,4.466,3.62,8.084,8.084,8.084h53.895
			c4.465,0,8.084-3.619,8.084-8.084V212.884C188.632,208.419,185.012,204.8,180.547,204.8z M172.463,366.484h-37.726V220.968h37.726
			V366.484z"/>

    <path
      d="M148.21,107.789c-22.289,0-40.421,18.132-40.421,40.421c0,22.289,18.132,40.421,40.421,40.421
			c22.289,0,40.421-18.132,40.421-40.421S170.499,107.789,148.21,107.789z M148.21,172.463c-13.373,0-24.253-10.88-24.253-24.253
			c0-13.372,10.879-24.253,24.253-24.253c13.373,0,24.253,10.88,24.253,24.253C172.463,161.583,161.584,172.463,148.21,172.463z"/>

    <path
      d="M331.453,204.8c-16.054,0-31.87,4.156-45.811,11.896v-3.811c0-4.465-3.62-8.084-8.084-8.084h-43.116
			c-4.465,0-8.084,3.62-8.084,8.084v161.684c0,4.465,3.62,8.084,8.084,8.084h53.895c4.465,0,8.084-3.62,8.084-8.084v-58.04
			c0-19.008,4.207-41.665,24.253-41.665c14.959,0,21.095,12.619,23.247,26.923c0.59,3.922,3.989,6.808,7.957,6.808
			c4.979,0,8.722-4.464,7.954-9.382c-4.059-25.974-17.828-40.517-39.158-40.517c-25.688,0-40.421,21.08-40.421,57.833v49.956
			h-37.726V220.968h26.947v10.63c0,2.507,1.044,4.956,3.004,6.519c3.043,2.426,7.234,2.342,10.138,0.012
			c14.001-11.226,30.888-17.161,48.837-17.161c46.537,0,67.368,39.249,67.368,78.147v67.368h-37.726v-26.62
			c0-4.452-3.609-8.061-8.06-8.061h-0.047c-4.452,0-8.06,3.609-8.06,8.061v34.704c0,4.465,3.62,8.084,8.084,8.084h53.895
			c4.465,0,8.084-3.62,8.084-8.084v-75.453C414.989,243.584,380.638,204.8,331.453,204.8z"/>
  </symbol>

  <symbol id="google-plus" viewBox="0 0 512 512">
    <path
      d="M437.019,74.981C388.667,26.628,324.379,0,256,0S123.333,26.628,74.982,74.981C26.628,123.333,0,187.621,0,256
      s26.628,132.667,74.982,181.019C123.333,485.372,187.621,512,256,512s132.667-26.628,181.019-74.981S512,324.379,512,256
      S485.372,123.333,437.019,74.981z M256,495.832C123.756,495.832,16.168,388.244,16.168,256S123.756,16.168,256,16.168
      S495.832,123.756,495.832,256S388.244,495.832,256,495.832z"/>

    <path
      d="M349.613,237.646c-0.942-0.363-1.956-0.509-2.966-0.509H223.663c-4.465,0-8.084,3.62-8.084,8.084v53.895
      c0,4.465,3.62,8.084,8.084,8.084h51.182c-16.49,23.528-43.275,37.698-72.653,37.726h-0.083c-47.216,0-87.072-38.317-88.864-85.45
      c-0.693-18.237,4.052-35.738,13.529-50.748c2.003-3.173,1.558-7.305-1.096-9.958c-0.039-0.039-0.077-0.077-0.115-0.115
      c-3.616-3.616-9.684-2.99-12.421,1.331c-11.253,17.77-16.873,38.507-16.052,60.105c1.033,27.187,12.492,52.619,32.267,71.61
      c19.739,18.957,45.571,29.394,72.749,29.394h0.101c40.138-0.039,76.178-22.408,94.057-58.381c1.622-3.261,0.898-7.31-2.062-9.816
      c-1.491-1.262-3.432-1.866-5.385-1.866l-57.069,0v-37.726h106.934l-0.002,7.677c-0.026,74.458-59.935,136.278-133.547,137.808
      c-1.007,0.022-2.015,0.031-3.028,0.031c-77.738,0-141.802-63.222-142.809-140.931c-0.495-38.215,14.087-74.386,41.06-101.848
      c26.954-27.445,62.825-42.666,101.006-42.86c0.247-0.001,0.488-0.002,0.735-0.002c32.628,0,63.994,11.059,89.28,31.337
      l-26.9,26.901c-17.995-13.275-39.869-20.511-62.371-20.511c-21.674,0-42.25,6.472-59.628,18.511
      c-4.102,2.842-4.606,8.723-1.077,12.252l0.114,0.114c2.748,2.748,7.057,3.109,10.253,0.9
      c14.68-10.144,32.042-15.608,50.338-15.608c21.164,0,41.669,7.565,57.74,21.3c3.209,2.742,7.984,2.554,10.97-0.429L309,149.761
      c2.299-2.3,3.065-5.838,1.667-9.032c-0.466-1.064-1.201-1.993-2.063-2.771c-29.269-26.426-67.057-40.947-106.507-40.947
      c-0.273,0-0.547,0.001-0.818,0.002c-42.523,0.217-82.462,17.157-112.46,47.699c-30.016,30.562-46.242,70.83-45.691,113.387
      c0.544,42.027,17.323,81.451,47.245,111.01c29.949,29.587,69.629,45.881,111.731,45.881c1.124,0,2.246-0.012,3.364-0.034
      c40.182-0.835,77.802-17.334,105.928-46.457c28.004-28.995,43.435-67.177,43.45-107.51l0.005-15.764
      C354.854,241.967,352.889,238.911,349.613,237.646z"/>

    <path
      d="M450.021,150.905h-24.253v-24.253c0-4.465-3.619-8.084-8.084-8.084h-43.116c-4.466,0-8.084,3.62-8.084,8.084v24.253
      h-24.253c-4.466,0-8.084,3.62-8.084,8.084v43.116c0,4.465,3.619,8.084,8.084,8.084h24.253v24.253c0,4.465,3.619,8.084,8.084,8.084
      h43.116c4.466,0,8.084-3.62,8.084-8.084v-24.253h24.253c4.466,0,8.084-3.62,8.084-8.084v-43.116
      C458.105,154.525,454.487,150.905,450.021,150.905z M441.937,194.021h-24.253c-4.466,0-8.084,3.62-8.084,8.084v24.253h-26.947
      v-24.253c0-4.465-3.619-8.084-8.084-8.084h-24.253v-26.947h24.253c4.466,0,8.084-3.62,8.084-8.084v-24.253H409.6v24.253
      c0,4.465,3.619,8.084,8.084,8.084h24.253V194.021z"/>
  </symbol>

  <symbol id="twitter" viewBox="0 0 512 512">
    <path
      d="M437.019,74.981C388.667,26.628,324.379,0,256,0S123.333,26.628,74.981,74.981C26.628,123.333,0,187.621,0,256
      s26.628,132.667,74.981,181.019C123.333,485.372,187.621,512,256,512s132.667-26.628,181.019-74.981S512,324.379,512,256
      S485.372,123.333,437.019,74.981z M256,495.832C123.756,495.832,16.168,388.244,16.168,256S123.756,16.168,256,16.168
      S495.832,123.756,495.832,256S388.244,495.832,256,495.832z"/>

    <path
      d="M436.352,162.391c-2.433-2.104-5.958-2.463-8.875-1.11c-4.183,1.94-8.457,3.644-12.806,5.107
      c4.313-5.884,7.758-12.422,10.188-19.432c1.002-2.891,0.503-6.176-1.569-8.427c-2.593-2.814-6.723-3.406-9.963-1.56
      c-11.815,6.733-24.558,11.306-37.931,13.618c-14.958-13.729-34.201-21.24-54.643-21.24c-42.313,0-77.147,32.642-80.648,74.065
      c-8.741-1.364-25.844-6.241-29.933-7.578c-29.581-10.075-56.228-27.814-77.075-51.307c-1.236-1.393-2.864-2.429-4.695-2.764
      c-3.68-0.672-7.171,1.186-8.745,4.339c-5.181,10.383-7.809,21.548-7.809,33.185c0,16.093,5.038,31.261,14.113,43.73
      c-2.828-0.531-5.838,0.462-7.812,2.89c-1.135,1.396-1.703,3.168-1.77,4.966c-0.03,0.82-0.057,1.643-0.057,2.472
      c0,21.817,9.99,41.646,26.136,54.588c-1.115,0.755-2.055,1.797-2.703,3.082c-0.963,1.904-1.07,4.143-0.434,6.178
      c7.052,22.559,24.572,39.739,46.292,46.781c-19.673,11.976-42.429,18.434-65.679,18.434c-2.053,0-4.166-0.053-6.279-0.156
      c-4.046-0.185-7.675,2.639-8.371,6.744c-0.568,3.349,1.162,6.698,4.087,8.423c29.718,17.529,63.734,26.792,98.39,26.792
      c41.361,0,80.758-12.881,113.607-36.725c4.052-2.942,4.499-8.821,0.959-12.362l-0.003-0.003
      c-2.852-2.852-7.338-3.159-10.605-0.793c-29.275,21.198-65.207,33.714-103.959,33.714c-21.719,0-43.162-3.968-63.255-11.61
      c24.303-4.268,47.275-14.808,66.409-30.712c2.312-1.922,3.529-4.962,2.947-7.911c-0.744-3.767-3.972-6.43-7.707-6.535
      c-19.686-0.558-37.26-11.435-46.698-28.06c4.501-0.216,9.006-0.832,13.44-1.841c3.382-0.77,6.119-3.472,6.559-6.913
      c0.529-4.142-2.134-7.925-6.085-8.897c-21.117-5.2-36.647-22.364-40.14-43.256c6.19,1.451,12.624,2.092,19.047,1.896
      c3.963-0.119,7.317-3.109,7.792-7.166c0.374-3.196-1.323-6.291-4.07-7.966c-17.529-10.682-27.985-29.272-27.985-49.783
      c0-5.014,0.623-9.917,1.859-14.665c21.193,20.954,46.914,36.922,75.086,46.518c0.258,0.088,28.093,8.754,38.636,8.797
      c0.688,0.017,3.975,0.162,3.98,0.162c3.388,0.137,6.673-1.919,7.953-5.326c0.368-0.978,0.502-2.03,0.477-3.074
      c-0.011-0.471-0.023-0.942-0.023-1.416c0-35.713,29.055-64.768,64.769-64.768c17.487,0,33.878,6.872,46.158,19.348
      c1.777,1.807,4.282,2.697,6.793,2.349c8.227-1.141,16.256-3.025,24.037-5.632c-4.142,4.544-9.025,8.437-14.502,11.504
      c-3.692,2.067-5.258,6.558-3.518,10.415l0.119,0.264c1.424,3.152,4.691,5.045,8.136,4.72c6.687-0.638,13.282-1.739,19.753-3.291
      c-5.725,5.904-12.02,11.267-18.849,16.051c-2.228,1.561-3.509,4.147-3.416,6.865l0.017,0.511c0.019,0.553,0.04,1.107,0.04,1.664
      v0.731c-0.186,45.29-17.461,86.654-45.668,117.994c-2.882,3.201-2.702,8.117,0.344,11.163c3.312,3.312,8.72,3.151,11.855-0.332
      c31.691-35.208,49.224-80.18,49.633-127.902c14.422-10.743,26.595-23.876,36.227-39.093
      C440.029,169.5,439.434,165.057,436.352,162.391z"/>
  </symbol>
</svg>
