<svg id="logo" xmlns="http://www.w3.org/2000/svg" viewBox="0 0 20.02 11.96">
  <defs>
    <style>
      .a {
        fill: #444;
      }
      .b {
        fill: #fbb03c;
      }
    </style>
  </defs>
  <title>Dropp Logo</title>
  <path class="a" d="M4.12,8.33A2.23,2.23,0,0,1,4,9a.86.86,0,0,1-.83.64H0l.83-.82V.85L0,0H3.19a1.55,1.55,0,0,1,.46.2,1.1,1.1,0,0,1,.47,1ZM2.86,8.27v-7l0-.2A.32.32,0,0,0,2.5.88H2.11V8.72h.36l.19-.07A.44.44,0,0,0,2.86,8.27Z"/><path class="a" d="M8.22,6,7.14,7.07V5.24l-.06-.16a.32.32,0,0,0-.28-.17H6.5V8.48L5.39,9.61V4.91l-.64-.64H7.5a1,1,0,0,1,.36.1A.68.68,0,0,1,8.22,5Z"/>
  <path class="a" d="M12,8.59a2.15,2.15,0,0,1-.13.49.7.7,0,0,1-.65.5H9.86a.7.7,0,0,1-.62-.49,2.23,2.23,0,0,1-.14-.5V5.33l0-.34q.2-.74.74-.74h1.25a.73.73,0,0,1,.68.53,3.91,3.91,0,0,1,.13.54Zm-1.09,0V5.27a.3.3,0,0,0,0-.16.28.28,0,0,0-.29-.17.32.32,0,0,0-.28.16l-.06.17V8.58l0,.17a.31.31,0,0,0,.29.18.3.3,0,0,0,.28-.17Z"/>
  <path class="a" d="M16.06,8.78a1.47,1.47,0,0,1-.16.4.74.74,0,0,1-.67.41h-.95v1.29L13.21,12V9.68h-.74L13.21,9V5l-.76-.73h2.77a1.5,1.5,0,0,1,.41.16.81.81,0,0,1,.42.74Zm-1.12-.14V5.32a.3.3,0,0,0,0-.16A.29.29,0,0,0,14.64,5h-.32V9h.32a.3.3,0,0,0,.19-.07A.31.31,0,0,0,14.94,8.64Z"/>
  <path class="a" d="M20,8.78a1.54,1.54,0,0,1-.16.4.74.74,0,0,1-.67.41h-.95v1.29L17.17,12V9.68h-.74L17.17,9V5l-.76-.73h2.77a1.52,1.52,0,0,1,.41.16.82.82,0,0,1,.42.74ZM18.9,8.64V5.32a.3.3,0,0,0,0-.16A.29.29,0,0,0,18.6,5h-.32V9h.32a.3.3,0,0,0,.19-.07A.31.31,0,0,0,18.9,8.64Z"/><rect class="b" x="4.67" y="2.07" width="11" height="1"/><rect class="b" x="4.67" y="0.07" width="15" height="1"/>
</svg>
