<svg xmlns="http://www.w3.org/2000/svg" xmlns:xlink="http://www.w3.org/1999/xlink"
     viewBox="0 0 251.16 520.54">
  <defs>
    <style>
      .a {
        fill: #998344;
        fill-opacity: 0.34;
      }

      .b {
        fill: #f3f3f0;
      }

      .c {
        opacity: 0.18;
        filter: url(#a);
      }

      .c, .l {
        isolation: isolate;
      }

      .d {
        fill: #4d4d4d;
      }

      .e {
        fill: #e4e6dc;
      }

      .f {
        fill: #f8f8f6;
      }

      .g {
        fill: #fbb839;
      }

      .h {
        fill: #ada89e;
      }

      .i, .n {
        fill: #fff;
      }

      .j {
        fill: #dddbd4;
      }

      .k {
        fill: #5a5b56;
      }

      .l {
        fill: #1a1a1a;
        opacity: 0.22;
      }

      .m {
        fill: #d0cec8;
      }

      .n {
        stroke: #fff;
        stroke-width: 0.49px;
      }
    </style>
    <filter id="a" name="filter4419-1-3-1-6-4">
      <feGaussianBlur result="feGaussianBlur4421-7-4-4-1-0" stdDeviation="0.6"/>
    </filter>
  </defs>
  <title>iphone5-flat-by-svgstock2</title>
  <path class="a" d="M44.86,12.14H218.42a32.67,32.67,0,0,1,32.74,32.74V487.8a32.67,32.67,0,0,1-32.74,32.74H44.86A32.67,32.67,0,0,1,12.11,487.8V44.89A32.67,32.67,0,0,1,44.86,12.14Z"/>
  <g>
    <path class="b" d="M1.71,163.09h2A1.71,1.71,0,0,1,5.4,164.8v13.54A1.71,1.71,0,0,1,3.69,180h-2A1.71,1.71,0,0,1,0,178.34V164.8A1.71,1.71,0,0,1,1.71,163.09Z"/>
    <g class="c">
      <path class="d" d="M3.95,163.09h2a1.71,1.71,0,0,1,1.71,1.71v13.54A1.71,1.71,0,0,1,5.93,180h-2a1.71,1.71,0,0,1-1.71-1.71V164.8a1.71,1.71,0,0,1,1.71-1.71Z"/>
    </g>
    <path class="b" d="M1.71,71.81h2A1.71,1.71,0,0,1,5.4,73.52V94.11a1.71,1.71,0,0,1-1.71,1.71h-2A1.71,1.71,0,0,1,0,94.11V73.52A1.71,1.71,0,0,1,1.71,71.81Z"/>
    <g class="c">
      <rect class="d" x="2.24" y="71.81" width="5.4" height="24.01" rx="1.71" ry="1.71"/>
    </g>
    <path class="b" d="M1.71,71.81h2A1.71,1.71,0,0,1,5.4,73.52V94.11a1.71,1.71,0,0,1-1.71,1.71h-2A1.71,1.71,0,0,1,0,94.11V73.52A1.71,1.71,0,0,1,1.71,71.81Z"/>
    <g class="c">
      <rect class="d" x="2.24" y="71.81" width="5.4" height="24.01" rx="1.71" ry="1.71"/>
    </g>
    <path class="b" d="M1.71,120.78h2a1.71,1.71,0,0,1,1.71,1.71V136a1.71,1.71,0,0,1-1.71,1.71h-2A1.71,1.71,0,0,1,0,136V122.49A1.71,1.71,0,0,1,1.71,120.78Z"/>
    <g class="c">
      <path class="d" d="M3.95,120.78h2a1.71,1.71,0,0,1,1.71,1.71V136a1.71,1.71,0,0,1-1.71,1.71h-2A1.71,1.71,0,0,1,2.24,136V122.49a1.71,1.71,0,0,1,1.71-1.71Z"/>
    </g>
  </g>
  <path class="b" d="M202,1.71v2a1.71,1.71,0,0,1-1.71,1.71H164.94a1.71,1.71,0,0,1-1.71-1.71v-2A1.71,1.71,0,0,1,164.94,0h35.34A1.71,1.71,0,0,1,202,1.71Z"/>
  <g class="c">
    <rect class="d" x="163.23" y="2.24" width="38.76" height="5.4" rx="1.71" ry="1.71"/>
  </g>
  <path class="e" d="M35.43,2.72H209a32.67,32.67,0,0,1,32.74,32.74V478.37A32.67,32.67,0,0,1,209,511.11H35.43A32.67,32.67,0,0,1,2.69,478.37V35.46A32.67,32.67,0,0,1,35.43,2.72Z"/>
  <path class="f" d="M208.62,6.49c-59.28.38-118.57-.4-177.84.41C16.05,8.94,4.69,24,6.57,38.73c0,147.68-.25,295.36.17,443C8,496.87,23.12,509,38.17,507.23c58.18-.08,116.37.35,174.55-.22,14.76-1.45,26.52-16,25.19-30.71-.16-148.12.23-296.25-.23-444.37C236.27,17.75,222.88,6,208.62,6.49Z"/>
  <path class="g" d="M18.35,58.2H225.44a2.24,2.24,0,0,1,2.24,2.24V426.2a2.24,2.24,0,0,1-2.24,2.24H18.35a2.24,2.24,0,0,1-2.24-2.24V60.45a2.24,2.24,0,0,1,2.24-2.24Z"/>
  <path class="h" d="M104.64,37.41h33.91a3.73,3.73,0,1,1,0,7.46H104.64a3.73,3.73,0,1,1,0-7.46Z"/>
  <path class="i" d="M104.53,38.26h33.91a3.73,3.73,0,1,1,0,7.46H104.53a3.73,3.73,0,1,1,0-7.46Z"/>
  <path class="j" d="M104.53,38.08h33.91a3.73,3.73,0,1,1,0,7.46H104.53a3.73,3.73,0,1,1,0-7.46Z"/>
  <path class="k" d="M105,39.44h33.32a2.37,2.37,0,0,1,0,4.75H105a2.37,2.37,0,0,1,0-4.75Z"/>
  <path class="l" d="M105,39.44a2.37,2.37,0,0,0-2.37,2.37,2.8,2.8,0,0,0,0,.33A2.36,2.36,0,0,1,105,40.07h33.33a2.36,2.36,0,0,1,2.34,2.07,2.23,2.23,0,0,0,0-.33,2.37,2.37,0,0,0-2.37-2.37H105Z"/>
  <path class="i" d="M127.19,23.15A5.23,5.23,0,1,1,122,17.92,5.23,5.23,0,0,1,127.19,23.15Z"/>
  <path class="j" d="M127.31,23a5.23,5.23,0,1,1-5.23-5.23A5.23,5.23,0,0,1,127.31,23Z"/>
  <path class="m" d="M122.08,17.81a5.19,5.19,0,0,0-3.15,1.06,5.22,5.22,0,0,1,5.93,8.58,5.22,5.22,0,0,0-2.79-9.64Z"/>
  <path class="k" d="M124.46,23a2.38,2.38,0,1,1-2.38-2.38A2.38,2.38,0,0,1,124.46,23Z"/>
  <g>
    <g>
      <path class="i" d="M25.13,68.77A1.79,1.79,0,1,1,23.34,67,1.79,1.79,0,0,1,25.13,68.77Z"/>
      <path class="i" d="M30.42,68.77A1.79,1.79,0,1,1,28.63,67,1.79,1.79,0,0,1,30.42,68.77Z"/>
      <path class="i" d="M35.71,68.77A1.79,1.79,0,1,1,33.92,67,1.79,1.79,0,0,1,35.71,68.77Z"/>
      <path class="i" d="M41,68.77A1.79,1.79,0,1,1,39.21,67,1.79,1.79,0,0,1,41,68.77Z"/>
      <path class="i" d="M46.29,68.77A1.79,1.79,0,1,1,44.5,67,1.79,1.79,0,0,1,46.29,68.77Z"/>
    </g>
    <path class="n" d="M111.6,67.71h19.18a1.87,1.87,0,1,1,0,3.75H111.6a1.87,1.87,0,1,1,0-3.75Z"/>
    <g>
      <path class="i" d="M177.74,66.73h1.72v4.72H180V65.09h-.48q-.14.84-.6,1a3.14,3.14,0,0,1-1.24.19Z"/>
      <path class="i" d="M184.61,65.52a1.39,1.39,0,0,1,1.1.48,2.42,2.42,0,0,1,.48,1.1,6.27,6.27,0,0,1,.11,1.21,6.79,6.79,0,0,1-.11,1.22,2.43,2.43,0,0,1-.48,1.1,1.5,1.5,0,0,1-2.2,0,2.43,2.43,0,0,1-.48-1.1,6.32,6.32,0,0,1-.11-1.22A6.74,6.74,0,0,1,183,67.1a2.43,2.43,0,0,1,.48-1.1A1.38,1.38,0,0,1,184.61,65.52Zm0-.48a2,2,0,0,0-1.43.52,2.58,2.58,0,0,0-.67,1.25,6.11,6.11,0,0,0-.17,1.51,6.52,6.52,0,0,0,.17,1.51,2.59,2.59,0,0,0,.67,1.25,2.24,2.24,0,0,0,2.87,0,2.58,2.58,0,0,0,.67-1.25,6.11,6.11,0,0,0,.17-1.51,6.52,6.52,0,0,0-.17-1.51,2.59,2.59,0,0,0-.67-1.25,2,2,0,0,0-1.43-.52Z"/>
      <path class="i" d="M189.8,65.52a1.39,1.39,0,0,1,1.1.48,2.43,2.43,0,0,1,.48,1.1,6.27,6.27,0,0,1,.11,1.21,6.79,6.79,0,0,1-.11,1.22,2.43,2.43,0,0,1-.48,1.1,1.5,1.5,0,0,1-2.2,0,2.43,2.43,0,0,1-.48-1.1,6.32,6.32,0,0,1-.11-1.22,6.74,6.74,0,0,1,.11-1.21,2.43,2.43,0,0,1,.48-1.1A1.38,1.38,0,0,1,189.8,65.52Zm0-.48a2,2,0,0,0-1.43.52,2.58,2.58,0,0,0-.67,1.25,6.21,6.21,0,0,0-.17,1.51,6.52,6.52,0,0,0,.17,1.51,2.59,2.59,0,0,0,.67,1.25,2.24,2.24,0,0,0,2.87,0,2.58,2.58,0,0,0,.67-1.25,6.11,6.11,0,0,0,.17-1.51,6.52,6.52,0,0,0-.17-1.51,2.57,2.57,0,0,0-.67-1.25A2,2,0,0,0,189.8,65Z"/>
      <path class="i" d="M194.52,65.44a.85.85,0,0,1,.79.44,1.79,1.79,0,0,1,.2.88,1.84,1.84,0,0,1-.2.86.93.93,0,0,1-1.57,0,1.75,1.75,0,0,1-.2-.86,1.89,1.89,0,0,1,.2-.88A.85.85,0,0,1,194.52,65.44Zm0-.41a1.38,1.38,0,0,0-1.14.49,2,2,0,0,0-.35,1.22,2,2,0,0,0,.35,1.22,1.35,1.35,0,0,0,1.14.49,1.37,1.37,0,0,0,1.14-.49,2,2,0,0,0,.35-1.22,2,2,0,0,0-.35-1.22A1.35,1.35,0,0,0,194.52,65Zm4.09,3.12a1.38,1.38,0,0,0-1.14.49,2,2,0,0,0-.35,1.22,2,2,0,0,0,.35,1.22,1.35,1.35,0,0,0,1.14.49,1.37,1.37,0,0,0,1.14-.49,2,2,0,0,0,.35-1.22,2,2,0,0,0-.35-1.22A1.35,1.35,0,0,0,198.61,68.15Zm0,.41a.86.86,0,0,1,.79.44,1.79,1.79,0,0,1,.2.88,1.84,1.84,0,0,1-.2.86.93.93,0,0,1-1.57,0,1.75,1.75,0,0,1-.2-.86,1.89,1.89,0,0,1,.2-.88A.85.85,0,0,1,198.61,68.56Zm-4.45,3.2h.45l4.21-6.9h-.44Z"/>
    </g>
    <g>
      <path class="i" d="M203.86,65.65h16.75v5.74H203.86Z"/>
      <path class="i" d="M222.23,67.25h-1.34v2.52h1.34Z"/>
    </g>
    <g>
      <path class="i" d="M54.16,69.58l.1-.09-.08.09-.1.09Zm3-.51L57.06,69l.07.06.07.07S57.19,69.14,57.13,69.07ZM52.4,68l0,0s0,0,0,0l0,0S52.38,68,52.4,68Zm6.32-.77-.05-.06.06.05.06.06S58.77,67.27,58.72,67.21Zm-7.93-1.08,0,0s0,0,0,0l0,0S50.77,66.16,50.79,66.14Z"/>
      <path class="i" d="M56.57,70.69s0-.05,0,0a.1.1,0,0,1,0,.07S56.57,70.73,56.57,70.69Zm-2.83-.11c0-.07,0-.09,0-.06a.38.38,0,0,1,0,.12S53.74,70.65,53.74,70.59Zm2.83-.05s0-.05,0,0a.1.1,0,0,1,0,.07S56.57,70.57,56.57,70.53Zm-3.86-1.27h.07s0,0,0,0S52.69,69.27,52.71,69.26Zm2.21-1H55s0,0,0,0S54.91,68.25,54.92,68.24Zm.43,0h.05s0,0,0,0S55.34,68.25,55.35,68.24Zm-4.29-.78h.07s0,0,0,0S51,67.48,51.05,67.47Zm4-.56h.23c.06,0,0,0-.11,0S55,66.91,55.06,66.9Zm-4.67-.11c0-.05,0-.07,0,0a.22.22,0,0,1,0,.09S50.4,66.84,50.4,66.79Zm9.51-.06s0,0,0,0a.05.05,0,0,1,0,.05S59.91,66.76,59.91,66.73Zm-4.35-.91h.05s0,0,0,0S55.55,65.82,55.56,65.81Zm-.8-1.34h.05s0,0,0,0S54.75,64.48,54.76,64.47Zm.76,0h.07s0,0,0,0S55.5,64.48,55.52,64.47Z"/>
      <path class="i" d="M55.1,69.18h.15s0,0-.07,0S55.06,69.18,55.1,69.18Zm-2.81-1.09.08-.07,0,.07-.08.07Zm-.8-.77.08-.09.08-.06-.08.09Zm7.14-.2s0,0,0,0l0,0S58.66,67.16,58.62,67.12Zm-7.92-.89.06-.05s0,0,0,.05l-.06.05S50.67,66.26,50.7,66.23Zm4.41-.45h.13s0,0-.07,0S55.06,65.79,55.1,65.78Zm-.24-1.31H55s0,0,0,0S54.84,64.48,54.86,64.47Zm.51,0h.09s0,0,0,0S55.35,64.48,55.37,64.47Z"/>
      <path class="i" d="M53.23,69,53.3,69l0,.07-.08.07ZM58,68.08l-.09-.1.1.09c.09.09.11.11.09.11Zm1.69-.82.08-.07,0,.07-.08.07Zm-9.1-.92.06-.05s0,0,0,.05l-.06.05S50.57,66.37,50.59,66.34Zm9-.15s0,0,0,0,.06.06,0,.06Z"/>
      <path class="i" d="M54.9,65.78H55s0,0,0,0S54.89,65.79,54.9,65.78Zm.43,0h.08s0,0,0,0S55.31,65.79,55.33,65.78Zm-.76-1.28h.05s0,0,0,0S54.56,64.51,54.57,64.5Zm.51,0h.16s0,0-.07,0S55,64.48,55.08,64.47Z"/>
      <path class="i" d="M54.16,71.58s0,0,0,0l0,0S54.19,71.63,54.16,71.58Zm2,0,0,0s0,0,0,0l0,0S56.12,71.61,56.14,71.59Zm2.67-4.31s0,0,0,0l0,0S58.85,67.32,58.81,67.28Zm.88-1-.06-.07.07.06.07.07S59.76,66.38,59.69,66.32Z"/>
      <path class="i" d="M54.87,72a1.71,1.71,0,0,1-.33-.12,1.69,1.69,0,0,1-.62-.62,1.4,1.4,0,1,1,2.66-.61A1.44,1.44,0,0,1,55.45,72,1.24,1.24,0,0,1,54.87,72Zm-2.28-2.74a.69.69,0,0,1-.49-.66c0-.21.08-.35.33-.58a4.24,4.24,0,0,1,2-1,5.12,5.12,0,0,1,1.4,0,4.41,4.41,0,0,1,1.59.65,2.86,2.86,0,0,1,.71.64.66.66,0,0,1-.58.95c-.21,0-.31-.05-.55-.28a2.75,2.75,0,0,0-1.32-.67,3.29,3.29,0,0,0-1.25,0,3,3,0,0,0-1.21.68,1.53,1.53,0,0,1-.24.19.76.76,0,0,1-.43,0Zm-1.69-1.8a.85.85,0,0,1-.4-.35.61.61,0,0,1,.1-.72,6,6,0,0,1,1-.77,6.72,6.72,0,0,1,2.56-1,8,8,0,0,1,1.68-.06,6.7,6.7,0,0,1,2.74.91,4.12,4.12,0,0,1,1.34,1.16.68.68,0,0,1-.55.85c-.2,0-.36,0-.62-.27a5.2,5.2,0,0,0-7.07,0,1.94,1.94,0,0,1-.28.23A.77.77,0,0,1,50.89,67.43Z"/>
    </g>
  </g>
  <g>
    <path class="e" d="M143.74,467.85a21.55,21.55,0,1,1-21.55-21.55A21.55,21.55,0,0,1,143.74,467.85Z"/>
    <path class="f" d="M142.11,467.85a19.92,19.92,0,1,1-19.92-19.92A19.92,19.92,0,0,1,142.11,467.85Z"/>
  </g>
</svg>
