<?xml version="1.0" encoding="iso-8859-1"?>
<svg version="1.1" xmlns="http://www.w3.org/2000/svg" xmlns:xlink="http://www.w3.org/1999/xlink">

  <symbol id="lux" viewBox="0 0 332.772 332.772">
    <path
      d="M329.172,158.389c-0.108-3.091-1.651-4.971-1.651-4.971c1.325-3.977,0.549-7.405,0.549-7.405h-2.32
			c-1.766-4.862-13.918-6.188-13.918-6.188c-46.837,4.862-75.56-20.547-130.572-21.432c-55.012-0.885-87.267,25.249-87.267,25.249
			c-9.442-1.823-30.652,3.65-30.652,3.65S5.177,169.989,1.094,174.959c-4.083,4.977,4.575,10.936,4.575,10.936v5.8
			c-11.431,3.314,2.154,12.097,2.154,12.097s19.19,1.449,39.757,2.273c-3.123-4.754-4.958-10.424-4.958-16.523
			c0-16.627,13.525-30.158,30.16-30.158s30.16,13.525,30.16,30.158c0,6.017-1.792,11.625-4.847,16.336
			c33.246-1.024,90.796-2.36,117.852-2.081c11.252,0.114,26.098,0.166,40.855,0.187c-2.982-4.779-4.733-10.393-4.733-16.43
			c0-17.182,13.977-31.152,31.152-31.152c17.181,0,31.151,13.971,31.151,31.152c0,5.98-1.725,11.562-4.66,16.305
			c2.6-0.02,4.313-0.046,4.826-0.066c3.65-0.166,13.582-6.96,14.747-11.931c1.16-4.977,1.486-10.937,2.874-15.41
			c1.377-4.474,0-14.856,0-14.856S329.286,161.481,329.172,158.389z"/>
    <path
      d="M72.783,214.401c7.337,0,13.867-3.241,18.416-8.301c3.961-4.4,6.436-10.164,6.436-16.554
			c0-13.728-11.13-24.855-24.857-24.855c-13.727,0-24.857,11.128-24.857,24.855c0,6.493,2.545,12.345,6.618,16.771
			C59.086,211.248,65.543,214.401,72.783,214.401z"/>
    <path
      d="M283.222,213.402c8.041,0,15.13-3.744,19.868-9.497c3.682-4.463,5.98-10.112,5.98-16.352
			c0-14.271-11.573-25.85-25.849-25.85c-14.271,0-25.85,11.578-25.85,25.85c0,6.28,2.33,11.95,6.048,16.43
			C268.158,209.689,275.222,213.402,283.222,213.402z"/>
  </symbol>

  <symbol id="suv" viewBox="0 0 486.022 486.022">
    <path
      d="M26.721,318.458c-2.182-5.643-3.424-11.745-3.424-18.146c0-27.867,22.674-50.537,50.542-50.537
      c27.868,0,50.534,22.67,50.534,50.529c0,6.869-1.389,13.421-3.888,19.412l256.323-14.539c-0.152-1.599-0.244-3.226-0.244-4.865
      c0-27.867,22.678-50.537,50.545-50.537c27.575,0,50.037,22.217,50.49,49.692l5.273-0.297c10.468-37.95-8.508-50.378-8.508-50.378
      c5.238-42.528-21.588-51.684-21.588-51.684c-7.851-17.663-30.749-43.176-30.749-43.176c26.173-17.663-18.967-7.199-18.967-7.199
      c-59.53-7.851-194.95-1.962-210.65,5.889c-15.701,7.851-62.803,51.026-62.803,51.026C-2.54,213.463,7.926,261.22,7.926,261.22
      c-14.389,2.612-5.887,24.861-0.194,45.829C9.245,312.639,16.67,316.202,26.721,318.458z"/>
    <path
      d="M73.83,257.625c-23.574,0-42.691,19.104-42.691,42.687c0,7.149,1.783,13.882,4.885,19.801
      c7.153,13.594,21.385,22.883,37.806,22.883c16.382,0,30.593-9.237,37.746-22.782c3.14-5.943,4.937-12.72,4.937-19.909
      C116.521,276.729,97.412,257.625,73.83,257.625z"/>
    <path
      d="M427.101,257.625c-23.575,0-42.695,19.104-42.695,42.687c0,1.495,0.076,2.966,0.232,4.429
      c2.221,21.491,20.382,38.255,42.463,38.255c23.584,0,42.688-19.111,42.688-42.691c0-0.132-0.016-0.269-0.024-0.4
      C469.556,276.52,450.536,257.625,427.101,257.625z"/>
  </symbol>

  <symbol id="green" viewBox="0 0 46.442 46.442">
    <path
      d="M44.953,27.417c-0.141-0.491-0.24-1.095-0.309-1.653c-0.48-3.932-4.365-5.715-7.232-7.755
      c-3.285-2.336-6.549-4.593-10.045-6.608C22.383,8.527,16.12,8.896,10.563,9.299C9.482,9.377,8.197,9.457,7.23,10.008
      c-1.116,0.636,0.745,0.41,0.83,1.062c0.085,0.658-0.795,1.818-1.059,2.402c-0.398,0.881-0.77,1.778-1.264,2.612
      c-0.342,0.578-1.783,2.771-1.73,0.868c0.032-1.14,0.602-2.206,1.083-3.212c0.255-0.534,1.216-1.836,0.996-2.439
      c-0.142-0.389-0.498-0.55-0.522-0.528c-0.3,0.278-0.469,0.982-0.64,1.345c-0.347,0.74-0.71,1.471-1.063,2.208
      c-0.746,1.559-1.455,3.166-1.721,4.886c-0.193,1.252-0.093,2.531-0.462,3.755c-0.326,1.082-0.905,2.084-1.152,3.192
      c-0.109,0.485-0.953,3.019-0.246,3.324c0.361,0.157,0.696-0.482,0.818-0.731c-1.747,3.581-0.149,8.247,4.258,8.641
      c2.904,0.259,4.923-1.729,6.001-4.213c0.683,0.557,2.035,0.399,2.869,0.399c5.468,0.006,10.938,0,16.404,0
      c1.564,0,3.098-0.368,3.333-2.161c0.19,1.632,0.546,3.106,1.735,4.312c1.352,1.371,3.662,2.009,5.461,1.332
      c1.763-0.663,2.973-2.288,3.871-3.872c0.02,0.1,0.098,0.196,0.119,0.29c1.945-0.811,1.373-4.186,0.389-5.489
      C45.45,27.869,44.989,27.535,44.953,27.417z M9.137,32.087c-0.002,0.022-0.004,0.044-0.007,0.065
      c-0.479,4.06-6.895,3.549-6.525-0.662c0.019-0.221,0.062-0.432,0.121-0.633c0.02-0.068,0.052-0.131,0.076-0.193
      C2.85,30.533,2.897,30.4,2.96,30.279c0.038-0.074,0.087-0.141,0.131-0.209c0.065-0.104,0.128-0.211,0.204-0.309
      c0.054-0.066,0.117-0.127,0.176-0.189c0.079-0.086,0.157-0.172,0.245-0.248c0.068-0.061,0.142-0.109,0.214-0.162
      c0.091-0.066,0.183-0.135,0.281-0.191c0.079-0.047,0.162-0.084,0.245-0.123c0.102-0.05,0.203-0.097,0.31-0.135
      c0.088-0.031,0.179-0.055,0.269-0.078c0.11-0.028,0.22-0.055,0.334-0.072c0.094-0.014,0.19-0.021,0.286-0.024
      c0.162-0.012,0.325-0.021,0.492-0.006C7.919,28.688,9.3,30.366,9.137,32.087z M33.616,19.48l-21.178-1.723
      c-1.236-0.101-2.288-1.193-2.131-2.424c0.224-1.759,0.87-3.995,2.678-4.521c1.837-0.533,4.592-0.431,6.519-0.261
      c1.236,0.109,3.194,0.554,4.358,0.983c2.885,1.063,7.991,3.257,10.717,6.287C35.407,18.744,34.851,19.58,33.616,19.48z
       M42.841,32.084c-0.021,0.213-0.06,0.419-0.117,0.615c-0.021,0.068-0.056,0.135-0.08,0.203c-0.047,0.127-0.092,0.256-0.153,0.377
      c-0.039,0.072-0.091,0.142-0.134,0.213c-0.063,0.104-0.127,0.207-0.2,0.303c-0.056,0.068-0.117,0.131-0.179,0.193
      c-0.078,0.084-0.155,0.17-0.241,0.246c-0.068,0.06-0.146,0.109-0.22,0.164c-0.09,0.063-0.181,0.133-0.274,0.188
      c-0.08,0.048-0.166,0.086-0.25,0.126c-0.101,0.049-0.199,0.096-0.306,0.133c-0.09,0.031-0.183,0.059-0.274,0.08
      c-0.104,0.026-0.215,0.053-0.324,0.069c-0.098,0.017-0.194,0.021-0.297,0.024c-0.159,0.013-0.317,0.021-0.483,0.009
      c-1.798-0.158-3.123-1.744-2.966-3.539c0.021-0.222,0.062-0.433,0.119-0.636c0.021-0.065,0.056-0.129,0.078-0.192
      c0.047-0.131,0.096-0.265,0.158-0.385c0.036-0.074,0.088-0.142,0.131-0.211c0.063-0.104,0.127-0.212,0.203-0.306
      c0.055-0.067,0.116-0.129,0.178-0.19c0.078-0.086,0.156-0.175,0.244-0.248c0.065-0.062,0.146-0.108,0.215-0.162
      c0.092-0.065,0.185-0.138,0.279-0.19c0.077-0.048,0.161-0.084,0.243-0.125c0.103-0.05,0.203-0.097,0.312-0.135
      c0.09-0.029,0.183-0.056,0.271-0.076c0.109-0.029,0.223-0.058,0.334-0.072c0.096-0.016,0.189-0.021,0.287-0.025
      c0.162-0.01,0.324-0.021,0.49-0.006c1.797,0.158,3.121,1.746,2.965,3.539C42.843,32.074,42.841,32.078,42.841,32.084z"/>
  </symbol>

  <symbol id="normal" viewBox="0 0 499.999 499.999">
    <path d="M282.253,146.255c-0.832,1.213-1.739,1.719-2.812,2.094
  		c-3.491,1.218-6.694,1.779-10.781,2.281c-6.247,0.768-12.975,2.037-19.125,3.375c-7.867,1.711-15.588,4.027-23.25,6.5
  		c-6.941,2.24-13.797,4.76-20.531,7.562c-6.406,2.666-12.693,5.662-18.875,8.812c-5.266,2.683-10.428,5.56-15.5,8.594
  		c-5.206,3.113-10.319,6.4-15.312,9.844c-5.717,3.943-11.243,8.113-16.75,12.344c-3.193,2.453-6.413,4.905-9.438,7.562
  		c-2.041,1.794-1.845,2.079-4.5,3.875c-2.035,1.376-4.521,1.18-6.812,0.094c-2.292-1.086-6.094-3.344-6.094-3.344
  		s4.564-3.412,8.156-5.906c-0.066,0.01-0.158,0.054-0.219,0.062c-2.283,0.315-5.221-0.536-7.5-0.875
  		c-1.384-0.206-2.822-0.265-4.219-0.188c-3.039,0.169-6.015,0.877-9,1.469c-14.71,2.918-29.413,6.06-43.812,10.25
  		c-10.374,3.019-20.642,6.482-30.594,10.688c-3.31,1.399-6.664,2.809-9.625,4.844c-2.73,1.877-5.281,4.094-7.344,6.688
  		c-1.947,2.448-3.291,5.358-4.625,8.188c-1.244,2.641-2.548,5.295-3.125,8.156c-0.898,4.454-0.465,9.082-0.438,13.625
  		c0.03,4.895,0.176,9.816,0.656,14.688c0.492,4.995,1.219,9.329,1.438,14.344c0.046,1.049,0.028,2.762-0.406,3.719
  		c-0.327,0.72-0.396,0.869-0.625,1.625c-0.206,0.682,0.126,1.439,0.406,2.094c0.671,1.568,1.731,2.982,2.938,4.188
  		c0.603,0.603,1.474,0.883,2.094,1.469c0.903,0.855,1.428,2.063,2.312,2.938c1.878,1.856,3.938,3.595,6.281,4.812
  		c3.314,1.721,7.045,2.554,10.688,3.375c3.923,0.884,7.961,1.326,11.969,1.656c2.786,0.23,5.152,0.529,8.375,0.219
  		c2.305-0.043,1.939-0.023,4.031-0.062c-1.708-4.896-2.656-10.177-2.656-15.656c0-26.206,21.262-47.438,47.469-47.438
  		c26.206,0,47.438,21.231,47.438,47.438c0,4.827-0.723,9.487-2.062,13.875c1.499-0.026,1.209-0.004,2.812-0.031
  		c104.131-1.268,157.897-3.013,236.844-4.188c1.387-0.021,2.726-0.066,4.094-0.094c-0.811-3.476-1.25-7.09-1.25-10.812
  		c0-26.206,21.231-47.438,47.438-47.438s47.469,21.231,47.469,47.438c0,1.638-0.088,3.249-0.25,4.844
  		c1.43-0.246,2.809-0.685,4.125-1.281c2.753-1.248,5.225-3.115,7.562-5.031c2.521-2.067,4.804-4.414,6.906-6.906
  		c1.325-1.57,3.019-3.05,3.562-5.031c0.686-2.501-0.491-1.931-0.625-7.781c-0.212-9.222,0.009-18.454-0.625-27.656
  		c-0.251-3.648-0.324-7.802-1.25-10.906c-0.325-1.09-1.367-2.156-2.094-3.031c-0.669-0.806-1.984-0.958-2.094-2
  		c-0.419-3.963-0.463-8.103-0.656-12.156c-0.124-2.615,0.025-5.238-0.188-7.844c-0.026,0.175-0.072,0.36-0.125,0.531
  		c-0.265,0.854-1.238,1.303-1.656,2.094c-0.444,0.84-0.685,1.782-0.844,2.719c-0.31,1.827-0.301,3.712-0.219,5.562
  		c0.086,1.935,0.6,3.819,0.75,5.75c0.095,1.219,0.591,2.57,0.094,3.688c-0.373,0.838-1.246,1.431-2.094,1.781
  		c-1.652,0.682-3.571,0.629-5.344,0.406c-1.83-0.229-3.667-0.833-5.25-1.781c-3.117-1.867-5.415-4.854-7.969-7.438
  		c-4.189-4.238-8.435-8.468-12.031-13.219c-0.919-1.213-2.146-2.376-2.406-3.875c-0.226-1.303,0.048-2.796,0.812-3.875
  		c1.47-2.072,4.209-2.871,6.5-3.969c2.71-1.299,5.567-2.406,8.5-3.062c2.123-0.475,4.324-0.61,6.5-0.625
  		c2.103-0.014,4.259-0.045,6.281,0.531c1.848,0.526,3.764,1.268,5.125,2.625c0.181,0.18,0.352,0.387,0.5,0.594
  		c-1.344-3.192-3.358-6.003-5.344-8.844c-0.384-0.141-4.759-1.764-7.188-2.344c-1.754-0.419-5.031-0.406-5.031-0.406
  		s-4.24-6.146-6.594-9.031c-2.861-3.507-5.884-6.873-9.125-10.031c-3.531-3.44-7.274-6.7-11.219-9.656
  		c-3.9-2.923-12.25-7.969-12.25-7.969l6.875-3.406c-1.023-1.131,0.384-4.064-0.688-5.375c-0.813-0.995-2.172-0.995-3.875-1.031
  		c-4.61-0.099-8.93-0.348-13.531-0.656c-5.897-0.395-11.735-1.322-17.594-2.094c-5.809-0.766-11.582-1.892-17.406-2.531
  		c-12.048-1.322-24.144-2.137-36.25-2.719c-13.261-0.637-26.574-0.424-39.844-0.844c-4.962-0.157-9.917-0.365-14.875-0.625
  		C291.037,146.869,286.661,146.151,282.253,146.255L282.253,146.255z M316.816,158.099c0,0,9.711,0.014,14.562,0.219
  		c6.997,0.295,13.993,0.849,20.969,1.469c7.139,0.635,14.279,1.304,21.375,2.312c5.163,0.734,10.536,1.65,15.406,2.719
  		c1.167,0.256,2.799,0.994,2.844,2.188c0.275,7.346,0.32,14.338,0.406,21.5c0.092,7.649,0.094,22.938,0.094,22.938
  		s-25.917,0.207-38.875,0.438c-14.079,0.251-42.219,1.031-42.219,1.031L316.816,158.099L316.816,158.099z M293.972,158.224
  		c0,0-3.334,18.496-5.438,27.656c-2.215,9.645-7.562,28.719-7.562,28.719s-15.506,0.663-23.25,1.25
  		c-14.349,1.087-28.671,2.562-42.969,4.188c-5.39,0.613-15.312,1.375-15.312,1.375s0.05-3.932-0.5-5.781
  		c-0.553-1.857-2.719-5.125-2.719-5.125l8.25-33.219c0,0,9.283-4.035,14.062-5.656c7.416-2.515,15.006-4.471,22.625-6.281
  		c7.691-1.828,15.463-3.453,23.281-4.625c6.112-0.916,12.277-1.386,18.438-1.875C286.575,158.555,293.972,158.224,293.972,158.224z
  		 M404.534,168.787c0,0,6.792,1.645,10.062,2.844c4.579,1.678,9.104,3.599,13.312,6.062c5.264,3.082,10.196,6.79,14.781,10.812
  		c3.12,2.737,6.392,5.481,8.594,9c1.947,3.112,0.951,2.972-1.906,4.312c-5.946,2.791-12.568,3.867-18.969,5.344
  		c-6.122,1.413-18.531,3.344-18.531,3.344L404.534,168.787L404.534,168.787z M199.659,179.38
  		c-2.221,9.086-5.416,18.888-7.656,27.969c0,0-3.456-0.795-5.125-0.625c-1.433,0.146-4.058,1.004-5.969,2
  		c-1.667,0.869-3.672,2.151-5.125,3.344c-1.566,1.286-3.363,3.579-4.094,5.469c-1.062,2.743,0,7.938,0,7.938
  		s-4.15,0.376-6.812,0.656c-2.648,0.279-7.969,0.625-7.969,0.625s2.584-10.739,4.406-15.938c1.232-3.515,4.406-10.281,4.406-10.281
  		s3.894-3.794,6.062-5.438c4.156-3.148,8.681-5.809,13.219-8.375C189.762,184.033,199.659,179.38,199.659,179.38L199.659,179.38z
  		 M64.284,229.443c0.742-0.019,1.462,0.066,2.094,0.438c0.62,0.365,1.088,1.189,1.031,1.906c-0.099,1.24-1.438,2.053-2.312,2.938
  		c-2.9,2.933-6.396,5.185-9.625,7.75c-4.519,3.59-8.847,7.449-13.625,10.688c-2.073,1.405-4.169,2.835-6.5,3.75
  		c-2.067,0.811-4.303,1.148-6.5,1.469c-4.088,0.596-8.213,0.9-12.344,0.844c-1.474-0.02-3.165,0.388-4.406-0.406
  		c-0.818-0.523-0.851-1.783-1.469-2.531c-0.945-1.146-2.175-2.063-3.375-2.938c-0.658-0.48-1.953-0.448-2.094-1.25
  		c-0.42-2.397,2.955-3.886,4.625-5.656c1.561-1.654,2.911-3.769,5.031-4.594c0.977-0.38,2.105,0.241,3.125,0
  		c2.585-0.61,4.682-2.522,7.125-3.562c3.07-1.307,6.269-2.33,9.437-3.375c3.19-1.052,6.386-2.171,9.656-2.938
  		c2.896-0.679,5.829-1.1,8.781-1.469c2.504-0.312,5.041-0.52,7.563-0.625C61.725,229.83,63.048,229.475,64.284,229.443
  		L64.284,229.443z M430.409,269.505c-22.917,0-41.5,18.583-41.5,41.5s18.583,41.5,41.5,41.5s41.5-18.583,41.5-41.5
  		S453.327,269.505,430.409,269.505z M95.097,270.755c-22.917,0-41.5,18.583-41.5,41.5s18.583,41.5,41.5,41.5
  		s41.469-18.583,41.469-41.5S118.014,270.755,95.097,270.755z M430.409,280.818c16.668,0,30.188,13.519,30.188,30.188
  		c0,16.668-13.519,30.188-30.188,30.188c-16.668,0-30.156-13.52-30.156-30.188C400.253,294.337,413.741,280.818,430.409,280.818z
  		 M95.097,282.068c16.668,0,30.156,13.519,30.156,30.188c0,16.668-13.488,30.188-30.156,30.188s-30.188-13.52-30.188-30.188
  		C64.909,295.587,78.429,282.068,95.097,282.068z"/>
    </symbol>
</svg>
